<svg width="250" height="719" viewBox="0 0 250 719" fill="none" xmlns="http://www.w3.org/2000/svg">
<path d="M16.5249 105.159L19.3675 112.841L27.0497 115.684L19.3675 118.527L16.5249 126.209L13.6822 118.527L6 115.684L13.6822 112.841L16.5249 105.159Z" fill="#CFE1F4"/>
<path d="M200.525 519L203.368 526.682L211.05 529.525L203.368 532.368L200.525 540.05L197.682 532.368L190 529.525L197.682 526.682L200.525 519Z" fill="#CFE1F4"/>
<path d="M52.0037 80L53.9326 85.2129L59.1456 87.1419L53.9326 89.0708L52.0037 94.2837L50.0747 89.0708L44.8618 87.1419L50.0747 85.2129L52.0037 80Z" fill="#CFE1F4"/>
<path d="M242.142 0L244.071 5.21292L249.284 7.14187L244.071 9.07082L242.142 14.2837L240.213 9.07082L235 7.14187L240.213 5.21292L242.142 0Z" fill="#CFE1F4"/>
<path d="M7.14187 704L9.07082 709.213L14.2837 711.142L9.07082 713.071L7.14187 718.284L5.21292 713.071L0 711.142L5.21292 709.213L7.14187 704Z" fill="#CFE1F4"/>
<path d="M223.532 211L227.187 220.877L237.064 224.532L227.187 228.187L223.532 238.064L219.877 228.187L210 224.532L219.877 220.877L223.532 211Z" fill="#CFE1F4"/>
<path d="M33.532 492L37.1868 501.877L47.0639 505.532L37.1868 509.187L33.532 519.064L29.8771 509.187L20 505.532L29.8771 501.877L33.532 492Z" fill="#CFE1F4"/>
</svg>
